<svg xmlns="http://www.w3.org/2000/svg" width="190" height="60" viewBox="0 0 190 60"><defs><style>.a{fill:#001a33;}.b,.c,.e{fill:#fff;}.b{font-size:20px;font-family:Inter-SemiBold, Inter;font-weight:600;letter-spacing:-0.025em;}.c{font-size:14px;font-family:Inter-Regular, Inter;letter-spacing:-0.029em;}.d{fill:none;}</style></defs><rect class="a" width="190" height="60" rx="8"/><text class="b" transform="translate(58 46)"><tspan x="0" y="0">App Store</tspan></text><text class="c" transform="translate(58 24)"><tspan x="0" y="0">Download on the</tspan></text><g transform="translate(16 14)"><rect class="d" width="32" height="32"/><path class="e" d="M2.742,23.249c-2.228-3.058-3.964-8.616-1.637-12.4A6.453,6.453,0,0,1,6.483,7.769c1.708-.032,3.292,1.082,4.34,1.082,1.028,0,2.987-1.334,5.006-1.135a6.24,6.24,0,0,1,4.8,2.438,5.577,5.577,0,0,0-2.834,4.69,5.468,5.468,0,0,0,3.511,4.969,12.033,12.033,0,0,1-1.826,3.493c-1.075,1.511-2.2,2.988-3.994,3.014-1.739.038-2.323-.961-4.318-.961-2.014,0-2.636.935-4.3,1l-.087,0C5.115,26.361,3.837,24.721,2.742,23.249ZM9.86,5.671a5.043,5.043,0,0,1,1.375-3.8A6.107,6.107,0,0,1,15.093,0a5.282,5.282,0,0,1-1.34,3.942A5.151,5.151,0,0,1,10.115,5.68Q9.988,5.68,9.86,5.671Z" transform="translate(5.333 1.333)"/></g></svg>