<svg xmlns="http://www.w3.org/2000/svg" width="190" height="60" viewBox="0 0 190 60"><defs><style>.a{fill:#001a33;}.b,.c,.e{fill:#fff;}.b{font-size:20px;font-family:Inter-SemiBold, Inter;font-weight:600;letter-spacing:-0.025em;}.c{font-size:14px;font-family:Inter-Regular, Inter;letter-spacing:-0.029em;}.d{fill:none;}</style></defs><rect class="a" width="190" height="60" rx="8"/><text class="b" transform="translate(58 46)"><tspan x="0" y="0">Google Play</tspan></text><text class="c" transform="translate(58 24)"><tspan x="0" y="0">Get it on</tspan></text><g transform="translate(16 14)"><rect class="d" width="32" height="32"/><path class="e" d="M1.723,26.664v0L13.742,13.9l3.632,3.805L2.052,26.5A2.666,2.666,0,0,1,1.723,26.664Zm-1.044,0h0a1.693,1.693,0,0,1-.564-1.454c0-.65-.029-6.1-.056-11.618C.031,8.01,0,2.369,0,1.585A1.522,1.522,0,0,1,.618.158l12.6,13.194L.68,26.662Zm17.374-9.344h0l-3.789-3.969L18.049,9.33l5.214,2.983c.489.28.737.606.737.969a1.347,1.347,0,0,1-.737,1.045l-5.209,2.991ZM13.739,12.8h0L1.517,0a1.485,1.485,0,0,1,.535.176l15.32,8.766L13.74,12.8Z" transform="translate(5.333 2.667)"/></g></svg>