<svg xmlns="http://www.w3.org/2000/svg" xmlns:xlink="http://www.w3.org/1999/xlink" width="794" height="299" viewBox="0 0 794 299"><defs><style>.a{fill:#fff;stroke:#707070;}.b{opacity:0.523;clip-path:url(#a);}.c{opacity:0.19;}.d{fill:#c0cbf7;}.aa,.ab,.ac,.ad,.ae,.af,.ag,.ah,.ai,.aj,.ak,.al,.am,.an,.ao,.ap,.aq,.ar,.as,.at,.au,.av,.d,.e,.f,.g,.h,.i,.j,.k,.l,.m,.n,.o,.p,.q,.r,.s,.t,.u,.v,.w,.x,.y,.z{fill-rule:evenodd;}.e{fill:#1e44e2;}.f{fill:#869aef;}.g{fill:#5975e9;}.h{fill:#2b4fe3;}.i{fill:#bec9f7;}.j{fill:#5d79ea;}.k{fill:#ced6f9;}.l{fill:#c8d1f8;}.m{fill:#d0d8f9;}.n{fill:#d6ddfa;}.o{fill:#e2e7fb;}.p{fill:#d2d9f9;}.q{fill:#cad3f8;}.r{fill:#e9edfc;}.s{fill:#3456e5;}.t{fill:#6f87ec;}.u{fill:#3759e5;}.v{fill:#254ae3;}.w{fill:#4e6ce8;}.x{fill:#97a9f2;}.y{fill:#8398ef;}.z{fill:#b8c4f6;}.aa{fill:#dfe5fb;}.ab{fill:#f4f6fe;}.ac{fill:#fbfcff;}.ad{fill:#2d50e4;}.ae{fill:#7189ed;}.af{fill:#c6d0f8;}.ag{fill:#bcc8f6;}.ah{fill:#1d43e2;}.ai{fill:#a6b5f4;}.aj{fill:#b2bff5;}.ak{fill:#2449e3;}.al{fill:#cbd3f8;}.am{fill:#ccd4f8;}.an{fill:#f6f7fe;}.ao{fill:#4866e7;}.ap{fill:#899df0;}.aq{fill:#5874e9;}.ar{fill:#dde3fb;}.as{fill:#d1d9f9;}.at{fill:#6982eb;}.au{fill:#e5e9fc;}.av{fill:#7e94ee;}</style><clipPath id="a"><rect class="a" width="794" height="299" transform="translate(80 2009)"/></clipPath></defs><g class="b" transform="translate(-80 -2009)"><g class="c" transform="translate(-30.899 1803.945)"><g transform="translate(447.066 81.646)"><path class="d" d="M14.852,29.7A14.852,14.852,0,1,0,0,14.852,14.852,14.852,0,0,0,14.852,29.7Zm0-4.456a10.4,10.4,0,1,0-10.4-10.4A10.4,10.4,0,0,0,14.852,25.248Z"/></g><g transform="translate(673.559 80.836)"><path class="e" d="M15.656,31.313A15.656,15.656,0,1,0,0,15.656,15.656,15.656,0,0,0,15.656,31.313Zm0-4.7A10.959,10.959,0,1,0,4.7,15.656,10.959,10.959,0,0,0,15.656,26.616Z"/></g><g transform="translate(219.764 157.403)"><path class="f" d="M14.852,29.7A14.852,14.852,0,1,0,0,14.852,14.852,14.852,0,0,0,14.852,29.7Zm0-4.456a10.4,10.4,0,1,0-10.4-10.4A10.4,10.4,0,0,0,14.852,25.248Z"/></g><g transform="translate(366.453 152.557)"><path class="g" d="M19.7,39.4A19.7,19.7,0,1,0,0,19.7,19.7,19.7,0,0,0,19.7,39.4Zm0-5.909A13.789,13.789,0,1,0,5.909,19.7,13.789,13.789,0,0,0,19.7,33.487Z"/></g><g transform="translate(439.792 150.129)"><path class="h" d="M22.126,44.252A22.126,22.126,0,1,0,0,22.126,22.126,22.126,0,0,0,22.126,44.252Zm0-6.638A15.488,15.488,0,1,0,6.638,22.126,15.488,15.488,0,0,0,22.126,37.615Z"/></g><g transform="translate(589.708 148.52)"><path class="i" d="M23.74,47.48A23.74,23.74,0,1,0,0,23.74,23.74,23.74,0,0,0,23.74,47.48Zm0-7.122A16.618,16.618,0,1,0,7.122,23.74,16.618,16.618,0,0,0,23.74,40.358Z"/></g><g transform="translate(977.427 157.403)"><path class="j" d="M14.852,29.7A14.852,14.852,0,1,0,0,14.852,14.852,14.852,0,0,0,14.852,29.7Zm0-4.456a10.4,10.4,0,1,0-10.4-10.4A10.4,10.4,0,0,0,14.852,25.248Z"/></g><g transform="translate(1055.623 159.831)"><path class="k" d="M12.424,24.848A12.424,12.424,0,1,0,0,12.424,12.424,12.424,0,0,0,12.424,24.848Zm0-3.727a8.7,8.7,0,1,0-8.7-8.7A8.7,8.7,0,0,0,12.424,21.121Z"/></g><g transform="translate(216.132 229.538)"><path class="l" d="M18.489,36.978A18.489,18.489,0,1,0,0,18.489,18.489,18.489,0,0,0,18.489,36.978Zm0-5.547A12.942,12.942,0,1,0,5.547,18.489,12.942,12.942,0,0,0,18.489,31.431Z"/></g><g transform="translate(360.392 222.264)"><path class="m" d="M25.758,51.517A25.758,25.758,0,1,0,0,25.758,25.758,25.758,0,0,0,25.758,51.517Zm0-7.727A18.031,18.031,0,1,0,7.727,25.758,18.031,18.031,0,0,0,25.758,43.789Z"/></g><g transform="translate(432.518 218.622)"><path class="n" d="M29.4,58.791A29.4,29.4,0,1,0,0,29.4,29.4,29.4,0,0,0,29.4,58.791Zm0-8.819A20.577,20.577,0,1,0,8.819,29.4,20.577,20.577,0,0,0,29.4,49.972Z"/></g><g transform="translate(657.392 216.204)"><path class="o" d="M31.823,63.647A31.823,31.823,0,1,0,0,31.823,31.824,31.824,0,0,0,31.823,63.647Zm0-9.547A22.276,22.276,0,1,0,9.547,31.823,22.276,22.276,0,0,0,31.823,54.1Z"/></g><g transform="translate(735.587 218.622)"><path class="p" d="M29.4,58.791A29.4,29.4,0,1,0,0,29.4,29.4,29.4,0,0,0,29.4,58.791Zm0-8.819A20.577,20.577,0,1,0,8.819,29.4,20.577,20.577,0,0,0,29.4,49.972Z"/></g><g transform="translate(814.987 222.264)"><path class="q" d="M25.758,51.517A25.758,25.758,0,1,0,0,25.758,25.758,25.758,0,0,0,25.758,51.517Zm0-7.727A18.031,18.031,0,1,0,7.727,25.758,18.031,18.031,0,0,0,25.758,43.789Z"/></g><g transform="translate(894.386 225.896)"><path class="r" d="M22.126,44.252A22.126,22.126,0,1,0,0,22.126,22.126,22.126,0,0,0,22.126,44.252Zm0-6.638A15.488,15.488,0,1,0,6.638,22.126,15.488,15.488,0,0,0,22.126,37.615Z"/></g><g transform="translate(1053.195 233.17)"><path class="s" d="M14.852,29.7A14.852,14.852,0,1,0,0,14.852,14.852,14.852,0,0,0,14.852,29.7Zm0-4.456a10.4,10.4,0,1,0-10.4-10.4A10.4,10.4,0,0,0,14.852,25.248Z"/></g><g transform="translate(284.625 298.031)"><path class="t" d="M25.758,51.517A25.758,25.758,0,1,0,0,25.758,25.758,25.758,0,0,0,25.758,51.517Zm0-7.727A18.031,18.031,0,1,0,7.727,25.758,18.031,18.031,0,0,0,25.758,43.789Z"/></g><g transform="translate(427.064 288.936)"><path class="u" d="M34.854,69.707A34.854,34.854,0,1,0,0,34.854,34.854,34.854,0,0,0,34.854,69.707Zm0-10.456a24.4,24.4,0,1,0-24.4-24.4A24.4,24.4,0,0,0,34.854,59.251Z"/></g><g transform="translate(499.797 285.911)"><path class="k" d="M37.884,75.767A37.884,37.884,0,1,0,0,37.884,37.884,37.884,0,0,0,37.884,75.767Zm0-11.365A26.519,26.519,0,1,0,11.365,37.884,26.519,26.519,0,0,0,37.884,64.4Z"/></g><g transform="translate(575.564 285.911)"><path class="v" d="M37.884,75.767A37.884,37.884,0,1,0,0,37.884,37.884,37.884,0,0,0,37.884,75.767Zm0-11.365A26.519,26.519,0,1,0,11.365,37.884,26.519,26.519,0,0,0,37.884,64.4Z"/></g><g transform="translate(651.331 285.911)"><path class="w" d="M37.884,75.767A37.884,37.884,0,1,0,0,37.884,37.884,37.884,0,0,0,37.884,75.767Zm0-11.365A26.519,26.519,0,1,0,11.365,37.884,26.519,26.519,0,0,0,37.884,64.4Z"/></g><g transform="translate(730.124 288.936)"><path class="x" d="M34.854,69.707A34.854,34.854,0,1,0,0,34.854,34.854,34.854,0,0,0,34.854,69.707Zm0-10.456a24.4,24.4,0,1,0-24.4-24.4A24.4,24.4,0,0,0,34.854,59.251Z"/></g><g transform="translate(810.444 293.479)"><path class="y" d="M30.306,60.612A30.306,30.306,0,1,0,0,30.306,30.306,30.306,0,0,0,30.306,60.612Zm0-9.092A21.214,21.214,0,1,0,9.092,30.306,21.214,21.214,0,0,0,30.306,51.52Z"/></g><g transform="translate(284.625 373.799)"><path class="z" d="M25.758,51.517A25.758,25.758,0,1,0,0,25.758,25.758,25.758,0,0,0,25.758,51.517Zm0-7.727A18.031,18.031,0,1,0,7.727,25.758,18.031,18.031,0,0,0,25.758,43.789Z"/></g><g transform="translate(427.064 364.703)"><path class="aa" d="M34.854,69.707A34.854,34.854,0,1,0,0,34.854,34.854,34.854,0,0,0,34.854,69.707Zm0-10.456a24.4,24.4,0,1,0-24.4-24.4A24.4,24.4,0,0,0,34.854,59.251Z"/></g><g transform="translate(499.797 361.668)"><path class="ab" d="M37.884,75.767A37.884,37.884,0,1,0,0,37.884,37.884,37.884,0,0,0,37.884,75.767Zm0-11.365A26.519,26.519,0,1,0,11.365,37.884,26.519,26.519,0,0,0,37.884,64.4Z"/></g><g transform="translate(575.564 361.668)"><path class="ac" d="M37.884,75.767A37.884,37.884,0,1,0,0,37.884,37.884,37.884,0,0,0,37.884,75.767Zm0-11.365A26.519,26.519,0,1,0,11.365,37.884,26.519,26.519,0,0,0,37.884,64.4Z"/></g><g transform="translate(651.331 361.668)"><path class="ad" d="M37.884,75.767A37.884,37.884,0,1,0,0,37.884,37.884,37.884,0,0,0,37.884,75.767Zm0-11.365A26.519,26.519,0,1,0,11.365,37.884,26.519,26.519,0,0,0,37.884,64.4Z"/></g><g transform="translate(730.124 364.703)"><path class="ae" d="M34.854,69.707A34.854,34.854,0,1,0,0,34.854,34.854,34.854,0,0,0,34.854,69.707Zm0-10.456a24.4,24.4,0,1,0-24.4-24.4A24.4,24.4,0,0,0,34.854,59.251Z"/></g><g transform="translate(810.444 369.246)"><path class="af" d="M30.306,60.612A30.306,30.306,0,1,0,0,30.306,30.306,30.306,0,0,0,30.306,60.612Zm0-9.092A21.214,21.214,0,1,0,9.092,30.306,21.214,21.214,0,0,0,30.306,51.52Z"/></g><g transform="translate(890.754 373.799)"><path class="ag" d="M25.758,51.517A25.758,25.758,0,1,0,0,25.758,25.758,25.758,0,0,0,25.758,51.517Zm0-7.727A18.031,18.031,0,1,0,7.727,25.758,18.031,18.031,0,0,0,25.758,43.789Z"/></g><g transform="translate(143.997 460.472)"><path class="ah" d="M14.852,29.7A14.852,14.852,0,1,0,0,14.852,14.852,14.852,0,0,0,14.852,29.7Zm0-4.456a10.4,10.4,0,1,0-10.4-10.4A10.4,10.4,0,0,0,14.852,25.248Z"/></g><g transform="translate(360.392 449.566)"><path class="ai" d="M25.758,51.517A25.758,25.758,0,1,0,0,25.758,25.758,25.758,0,0,0,25.758,51.517Zm0-7.727A18.031,18.031,0,1,0,7.727,25.758,18.031,18.031,0,0,0,25.758,43.789Z"/></g><g transform="translate(505.857 443.496)"><path class="aj" d="M31.823,63.647A31.823,31.823,0,1,0,0,31.823,31.824,31.824,0,0,0,31.823,63.647Zm0-9.547A22.276,22.276,0,1,0,9.547,31.823,22.276,22.276,0,0,0,31.823,54.1Z"/></g><g transform="translate(657.392 443.496)"><path class="ak" d="M31.823,63.647A31.823,31.823,0,1,0,0,31.823,31.824,31.824,0,0,0,31.823,63.647Zm0-9.547A22.276,22.276,0,1,0,9.547,31.823,22.276,22.276,0,0,0,31.823,54.1Z"/></g><g transform="translate(814.987 449.566)"><path class="al" d="M25.758,51.517A25.758,25.758,0,1,0,0,25.758,25.758,25.758,0,0,0,25.758,51.517Zm0-7.727A18.031,18.031,0,1,0,7.727,25.758,18.031,18.031,0,0,0,25.758,43.789Z"/></g><g transform="translate(894.386 453.198)"><path class="am" d="M22.126,44.252A22.126,22.126,0,1,0,0,22.126,22.126,22.126,0,0,0,22.126,44.252Zm0-6.638A15.488,15.488,0,1,0,6.638,22.126,15.488,15.488,0,0,0,22.126,37.615Z"/></g><g transform="translate(973.795 456.83)"><path class="an" d="M18.489,36.978A18.489,18.489,0,1,0,0,18.489,18.489,18.489,0,0,0,18.489,36.978Zm0-5.547A12.942,12.942,0,1,0,5.547,18.489,12.942,12.942,0,0,0,18.489,31.431Z"/></g><g transform="translate(293.113 533.812)"><path class="ao" d="M17.275,34.55A17.275,17.275,0,1,0,0,17.275,17.275,17.275,0,0,0,17.275,34.55Zm0-5.183A12.093,12.093,0,1,0,5.183,17.275,12.093,12.093,0,0,0,17.275,29.368Z"/></g><g transform="translate(366.453 531.394)"><path class="ap" d="M19.7,39.4A19.7,19.7,0,1,0,0,19.7,19.7,19.7,0,0,0,19.7,39.4Zm0-5.909A13.789,13.789,0,1,0,5.909,19.7,13.789,13.789,0,0,0,19.7,33.487Z"/></g><g transform="translate(513.94 527.347)"><path class="aq" d="M23.74,47.48A23.74,23.74,0,1,0,0,23.74,23.74,23.74,0,0,0,23.74,47.48Zm0-7.122A16.618,16.618,0,1,0,7.122,23.74,16.618,16.618,0,0,0,23.74,40.358Z"/></g><g transform="translate(589.708 527.347)"><path class="ar" d="M23.74,47.48A23.74,23.74,0,1,0,0,23.74,23.74,23.74,0,0,0,23.74,47.48Zm0-7.122A16.618,16.618,0,1,0,7.122,23.74,16.618,16.618,0,0,0,23.74,40.358Z"/></g><g transform="translate(742.861 528.966)"><path class="h" d="M22.126,44.252A22.126,22.126,0,1,0,0,22.126,22.126,22.126,0,0,0,22.126,44.252Zm0-6.638A15.488,15.488,0,1,0,6.638,22.126,15.488,15.488,0,0,0,22.126,37.615Z"/></g><g transform="translate(977.427 536.24)"><path class="as" d="M14.852,29.7A14.852,14.852,0,1,0,0,14.852,14.852,14.852,0,0,0,14.852,29.7Zm0-4.456a10.4,10.4,0,1,0-10.4-10.4A10.4,10.4,0,0,0,14.852,25.248Z"/></g><g transform="translate(1055.623 538.658)"><path class="at" d="M12.424,24.848A12.424,12.424,0,1,0,0,12.424,12.424,12.424,0,0,0,12.424,24.848Zm0-3.727a8.7,8.7,0,1,0-8.7-8.7A8.7,8.7,0,0,0,12.424,21.121Z"/></g><g transform="translate(148.853 616.853)"><path class="au" d="M10,20A10,10,0,1,0,0,10,10,10,0,0,0,10,20Zm0-3a7,7,0,1,0-7-7A7,7,0,0,0,10,17Z"/></g><g transform="translate(297.96 614.425)"><path class="av" d="M12.424,24.848A12.424,12.424,0,1,0,0,12.424,12.424,12.424,0,0,0,12.424,24.848Zm0-3.727a8.7,8.7,0,1,0-8.7-8.7A8.7,8.7,0,0,0,12.424,21.121Z"/></g></g></g></svg>