<svg xmlns="http://www.w3.org/2000/svg" width="24.63" height="29.282" viewBox="0 0 24.63 29.282"><defs><style>.a{fill:#001a33;}</style></defs><g transform="translate(-18.086 -15.767)"><g transform="translate(18.086 15.767)"><path class="a" d="M165.248,117.409l1.425.01c0-.459-.01-.918-.02-1.357a10.665,10.665,0,0,1,.469-4.3,6.746,6.746,0,0,1,3.9-3.827l.029-.01a9.409,9.409,0,0,1,5.291-.156l.029.01a6.212,6.212,0,0,1,3.963,2.714c1.23,1.669,1.191,3.641,1.142,5.73-.01.4-.02.82-.02,1.22l1.425-.01c0-.39.01-.771.02-1.181.049-2.138.1-4.549-1.425-6.619a7.676,7.676,0,0,0-4.871-3.27,10.876,10.876,0,0,0-6.043.215,8.2,8.2,0,0,0-4.754,4.608l-.01.029a11.855,11.855,0,0,0-.576,4.871C165.248,116.531,165.258,116.97,165.248,117.409Z" transform="translate(-161.753 -106.051)"/><path class="a" d="M153.307,228.5H130.932a1.14,1.14,0,0,0-1.132,1.132V244.7a1.14,1.14,0,0,0,1.132,1.132H153.3a1.14,1.14,0,0,0,1.132-1.132V229.632A1.119,1.119,0,0,0,153.307,228.5Zm-9.792,11.558h-2.763l.547-3.28a1.412,1.412,0,0,1-.517-1.367,1.385,1.385,0,0,1,2.743.273,1.354,1.354,0,0,1-.547,1.093Z" transform="translate(-129.8 -216.546)"/></g></g></svg>