<svg xmlns="http://www.w3.org/2000/svg" width="32.764" height="32.764" viewBox="0 0 32.764 32.764"><defs><style>.a{fill:#001a33;}</style></defs><g transform="translate(-11.108 -11.236)"><g transform="translate(11.108 11.236)"><path class="a" d="M22.1,11.236H15.447a4.345,4.345,0,0,0-4.339,4.339v6.648a4.345,4.345,0,0,0,4.339,4.339H22.1a4.345,4.345,0,0,0,4.339-4.339V15.575A4.345,4.345,0,0,0,22.1,11.236Zm1.972,10.987A1.972,1.972,0,0,1,22.1,24.2H15.447a1.972,1.972,0,0,1-1.972-1.972V15.575A1.972,1.972,0,0,1,15.447,13.6H22.1a1.972,1.972,0,0,1,1.972,1.972ZM22.1,28.674H15.447a4.345,4.345,0,0,0-4.339,4.339v6.648A4.345,4.345,0,0,0,15.447,44H22.1a4.345,4.345,0,0,0,4.339-4.339V33.013A4.345,4.345,0,0,0,22.1,28.674Zm1.972,10.987A1.972,1.972,0,0,1,22.1,41.633H15.447a1.972,1.972,0,0,1-1.972-1.972V33.013a1.972,1.972,0,0,1,1.972-1.972H22.1a1.972,1.972,0,0,1,1.972,1.972ZM39.531,28.674H32.885a4.344,4.344,0,0,0-4.339,4.339v6.648A4.344,4.344,0,0,0,32.885,44h6.647a4.345,4.345,0,0,0,4.339-4.339V33.013a4.345,4.345,0,0,0-4.339-4.339ZM41.5,39.661a1.972,1.972,0,0,1-1.972,1.972H32.885a1.972,1.972,0,0,1-1.972-1.972V33.013a1.972,1.972,0,0,1,1.972-1.972h6.647A1.972,1.972,0,0,1,41.5,33.013Zm-11.53-15.3.686-3.55,5.27-5.27,3.787,3.787-5.27,5.262-3.55.694a.789.789,0,0,1-.923-.923ZM41.39,17.653,37.6,13.866l1.041-1.041a1.578,1.578,0,0,1,2.233,0l1.554,1.554a1.578,1.578,0,0,1,0,2.233Z" transform="translate(-11.108 -11.236)"/></g></g></svg>