<svg xmlns="http://www.w3.org/2000/svg" width="40.48" height="30.36" viewBox="0 0 40.48 30.36"><defs><style>.a{fill:#001a33;}</style></defs><g transform="translate(0 -3)"><path class="a" d="M36.264,33.36H4.217A4.217,4.217,0,0,1,0,29.144V7.217A4.217,4.217,0,0,1,4.217,3H36.264A4.217,4.217,0,0,1,40.48,7.217V29.144a4.217,4.217,0,0,1-4.217,4.217ZM4.217,4.687a2.53,2.53,0,0,0-2.53,2.53V29.144a2.53,2.53,0,0,0,2.53,2.53H36.264a2.53,2.53,0,0,0,2.53-2.53V7.217a2.53,2.53,0,0,0-2.53-2.53Z"/><path class="a" d="M9.217,15.433a4.217,4.217,0,1,1,4.217-4.217,4.217,4.217,0,0,1-4.217,4.217Zm0-6.747a2.53,2.53,0,1,0,2.53,2.53A2.53,2.53,0,0,0,9.217,8.687Z" transform="translate(3.433 2.747)"/><path class="a" d="M17.337,19.747a.843.843,0,0,1-.843-.843V17.217a2.53,2.53,0,0,0-2.53-2.53H7.217a2.53,2.53,0,0,0-2.53,2.53V18.9A.843.843,0,1,1,3,18.9V17.217A4.217,4.217,0,0,1,7.217,13h6.747a4.217,4.217,0,0,1,4.217,4.217V18.9A.843.843,0,0,1,17.337,19.747Z" transform="translate(2.06 6.867)"/><path class="a" d="M24.963,9.687H14.843a.843.843,0,0,1,0-1.687h10.12a.843.843,0,0,1,0,1.687Z" transform="translate(9.614 3.433)"/><path class="a" d="M24.963,13.687H14.843a.843.843,0,0,1,0-1.687h10.12a.843.843,0,0,1,0,1.687Z" transform="translate(9.614 6.18)"/><path class="a" d="M24.963,17.687H14.843a.843.843,0,0,1,0-1.687h10.12a.843.843,0,0,1,0,1.687Z" transform="translate(9.614 8.927)"/></g></svg>