<svg width="24" height="24" viewBox="0 0 24 24" fill="none" xmlns="http://www.w3.org/2000/svg">
<path d="M17.8237 12.7041C17.8346 11.855 18.0601 11.0224 18.4793 10.2839C18.8984 9.54536 19.4976 8.92484 20.2209 8.48008C19.7613 7.82371 19.155 7.28354 18.4501 6.9025C17.7453 6.52145 16.9612 6.31002 16.1603 6.28501C14.4526 6.10593 12.7957 7.30685 11.9253 7.30685C11.0382 7.30685 9.69787 6.30254 8.25418 6.33208C7.32049 6.36224 6.41054 6.63377 5.61301 7.12022C4.81547 7.60666 4.15757 8.29143 3.70341 9.10777C1.73633 12.5139 3.20402 17.5207 5.08802 20.2742C6.03141 21.6219 7.13356 23.1284 8.57541 23.0758C9.98679 23.0167 10.5139 22.1758 12.2169 22.1758C13.9043 22.1758 14.3991 23.0758 15.8705 23.0416C17.3843 23.0167 18.3388 21.6875 19.2489 20.3259C19.9263 19.3652 20.4475 18.3035 20.7933 17.1801C19.9135 16.808 19.1628 16.1851 18.6347 15.3891C18.1066 14.5931 17.8246 13.6593 17.8237 12.7041ZM15.0443 4.47393C15.8698 3.4828 16.2764 2.20894 16.1779 0.922852C14.9165 1.05561 13.7514 1.65874 12.9148 2.61208C12.5058 3.07765 12.1926 3.61924 11.9931 4.2059C11.7935 4.79256 11.7115 5.41279 11.7517 6.03116C12.3826 6.03755 13.0067 5.90073 13.577 5.63099C14.1473 5.36126 14.649 4.96564 15.0443 4.47393Z" fill="#212121"/>
</svg>
