<svg width="24" height="24" viewBox="0 0 24 24" fill="none" xmlns="http://www.w3.org/2000/svg">
<path d="M17.8237 12.7043C17.8346 11.8552 18.0601 11.0226 18.4793 10.2841C18.8984 9.54558 19.4976 8.92507 20.2209 8.48031C19.7613 7.82393 19.155 7.28377 18.4501 6.90272C17.7453 6.52168 16.9612 6.31025 16.1603 6.28523C14.4526 6.10615 12.7957 7.30708 11.9253 7.30708C11.0382 7.30708 9.69787 6.30277 8.25418 6.33231C7.32049 6.36247 6.41054 6.634 5.61301 7.12044C4.81547 7.60689 4.15757 8.29165 3.70341 9.108C1.73633 12.5142 3.20402 17.5209 5.08802 20.2745C6.03141 21.6222 7.13356 23.1286 8.57541 23.076C9.98679 23.0169 10.5139 22.176 12.2169 22.176C13.9043 22.176 14.3991 23.076 15.8705 23.0418C17.3843 23.0169 18.3388 21.6877 19.2489 20.3262C19.9263 19.3655 20.4475 18.3038 20.7933 17.1803C19.9135 16.8082 19.1628 16.1853 18.6347 15.3893C18.1066 14.5934 17.8246 13.6595 17.8237 12.7043ZM15.0443 4.47415C15.8698 3.48303 16.2764 2.20917 16.1779 0.923077C14.9165 1.05583 13.7514 1.65897 12.9148 2.61231C12.5058 3.07788 12.1926 3.61947 11.9931 4.20613C11.7935 4.79278 11.7115 5.41302 11.7517 6.03138C12.3826 6.03778 13.0067 5.90095 13.577 5.63122C14.1473 5.36148 14.649 4.96586 15.0443 4.47415Z" fill="white"/>
</svg>
