<svg width="22" height="22" viewBox="0 0 22 22" fill="none" xmlns="http://www.w3.org/2000/svg">
<path d="M2.32884 1.10472C2.07275 1.41201 1.94349 1.80541 1.96741 2.20472V19.5847C1.94349 19.984 2.07275 20.3774 2.32884 20.6847L2.38384 20.7397L12.1188 11.0126V10.7847L2.38384 1.04972L2.32884 1.10472ZM15.3403 14.2576L12.1188 11.0126V10.7847L15.3403 7.53186L15.411 7.57114L19.2688 9.76329C20.3688 10.384 20.3688 11.4054 19.2688 12.034L15.4267 14.2183L15.3403 14.2576Z" fill="#212121" stroke="white"/>
<path d="M15.4346 14.2104L12.1189 10.8947L2.32886 20.6847C2.55307 20.8818 2.83909 20.9944 3.1375 21.003C3.4359 21.0116 3.72794 20.9157 3.96314 20.7319L15.4424 14.2104" fill="#212121"/>
<path d="M15.4346 14.2104L12.1189 10.8947L2.32886 20.6847C2.55307 20.8818 2.83909 20.9944 3.1375 21.003C3.4359 21.0116 3.72794 20.9157 3.96314 20.7319L15.4424 14.2104" stroke="white"/>
<path d="M15.4346 7.579L3.95533 1.05757C3.72013 0.873726 3.42809 0.777819 3.12969 0.786427C2.83128 0.795035 2.54526 0.907616 2.32104 1.10471L12.1189 10.8947L15.4346 7.579Z" fill="#212121" stroke="white"/>
</svg>
