<svg width="20" height="22" viewBox="0 0 20 22" fill="none" xmlns="http://www.w3.org/2000/svg">
<path d="M1.32884 1.1048C1.07275 1.4121 0.943492 1.8055 0.967414 2.2048V19.5848C0.943492 19.9841 1.07275 20.3775 1.32884 20.6848L1.38384 20.7398L11.1188 11.0127V10.7848L1.38384 1.0498L1.32884 1.1048ZM14.3403 14.2577L11.1188 11.0127V10.7848L14.3403 7.53195L14.411 7.57123L18.2688 9.76338C19.3688 10.3841 19.3688 11.4055 18.2688 12.0341L14.4267 14.2184L14.3403 14.2577Z" fill="#212121" stroke="white"/>
<path d="M14.4346 14.2107L11.1189 10.895L1.32886 20.685C1.55307 20.8821 1.83909 20.9947 2.1375 21.0033C2.4359 21.0119 2.72794 20.916 2.96314 20.7322L14.4424 14.2107" fill="#212121"/>
<path d="M14.4346 14.2107L11.1189 10.895L1.32886 20.685C1.55307 20.8821 1.83909 20.9947 2.1375 21.0033C2.4359 21.0119 2.72794 20.916 2.96314 20.7322L14.4424 14.2107" stroke="white"/>
<path d="M14.4346 7.57924L2.95533 1.05781C2.72013 0.873964 2.42809 0.778058 2.12969 0.786666C1.83128 0.795274 1.54526 0.907855 1.32104 1.10495L11.1189 10.895L14.4346 7.57924Z" fill="#212121" stroke="white"/>
</svg>
