<svg width="20" height="20" viewBox="0 0 20 20" fill="none" xmlns="http://www.w3.org/2000/svg">
<path d="M10 1.802C12.67 1.802 12.986 1.812 14.04 1.86C15.016 1.905 15.545 2.068 15.898 2.204C16.364 2.386 16.698 2.603 17.048 2.952C17.398 3.302 17.614 3.636 17.796 4.102C17.932 4.455 18.096 4.984 18.14 5.959C18.188 7.014 18.198 7.329 18.198 10C18.198 12.67 18.188 12.986 18.14 14.04C18.095 15.016 17.932 15.545 17.796 15.898C17.614 16.364 17.397 16.698 17.048 17.048C16.698 17.398 16.364 17.614 15.898 17.796C15.545 17.933 15.016 18.096 14.041 18.14C12.987 18.188 12.671 18.198 10 18.198C7.33 18.198 7.013 18.188 5.96 18.14C4.984 18.095 4.455 17.933 4.102 17.796C3.66758 17.6357 3.27462 17.3801 2.952 17.048C2.61986 16.7254 2.36426 16.3324 2.204 15.898C2.067 15.545 1.904 15.016 1.86 14.041C1.812 12.986 1.802 12.671 1.802 10C1.802 7.33 1.812 7.014 1.86 5.96C1.905 4.984 2.067 4.455 2.204 4.102C2.386 3.636 2.603 3.302 2.952 2.952C3.302 2.602 3.636 2.386 4.102 2.204C4.455 2.068 4.984 1.904 5.959 1.86C7.014 1.812 7.329 1.802 10 1.802ZM10 0C7.284 0 6.944 0.012 5.877 0.06C4.813 0.11 4.086 0.278 3.45 0.525C2.7825 0.775874 2.17777 1.16936 1.678 1.678C1.16936 2.17777 0.775874 2.7825 0.525 3.45C0.278 4.086 0.109 4.813 0.06 5.877C0.011 6.944 0 7.284 0 10C0 12.716 0.011 13.056 0.06 14.123C0.109 15.187 0.278 15.914 0.525 16.55C0.775874 17.2175 1.16936 17.8222 1.678 18.322C2.17777 18.8306 2.7825 19.2241 3.45 19.475C4.086 19.722 4.813 19.891 5.877 19.94C6.944 19.989 7.284 20 10 20C12.716 20 13.056 19.989 14.123 19.94C15.187 19.891 15.914 19.722 16.55 19.475C17.2175 19.2241 17.8222 18.8306 18.322 18.322C18.8306 17.8222 19.2241 17.2175 19.475 16.55C19.722 15.914 19.891 15.187 19.94 14.123C19.988 13.056 20 12.716 20 10C20 7.284 19.988 6.944 19.94 5.877C19.891 4.813 19.722 4.086 19.475 3.45C19.2241 2.7825 18.8306 2.17777 18.322 1.678C17.8222 1.16936 17.2175 0.775874 16.55 0.525C15.914 0.278 15.187 0.109 14.123 0.06C13.056 0.012 12.716 0 10 0ZM10 4.865C8.63811 4.865 7.33201 5.40601 6.36901 6.36901C5.40601 7.33201 4.865 8.63811 4.865 10C4.865 11.3619 5.40601 12.668 6.36901 13.631C7.33201 14.594 8.63811 15.135 10 15.135C11.3619 15.135 12.668 14.594 13.631 13.631C14.594 12.668 15.135 11.3619 15.135 10C15.135 8.63811 14.594 7.33201 13.631 6.36901C12.668 5.40601 11.3619 4.865 10 4.865ZM10 13.333C9.11603 13.333 8.26827 12.9818 7.64321 12.3568C7.01815 11.7317 6.667 10.884 6.667 10C6.667 9.11603 7.01815 8.26827 7.64321 7.64321C8.26827 7.01815 9.11603 6.667 10 6.667C10.884 6.667 11.7317 7.01815 12.3568 7.64321C12.9818 8.26827 13.333 9.11603 13.333 10C13.333 10.884 12.9818 11.7317 12.3568 12.3568C11.7317 12.9818 10.884 13.333 10 13.333ZM16.538 4.662C16.538 4.98026 16.4116 5.28548 16.1865 5.51053C15.9615 5.73557 15.6563 5.862 15.338 5.862C15.0197 5.862 14.7145 5.73557 14.4895 5.51053C14.2644 5.28548 14.138 4.98026 14.138 4.662C14.138 4.34374 14.2644 4.03852 14.4895 3.81347C14.7145 3.58843 15.0197 3.462 15.338 3.462C15.6563 3.462 15.9615 3.58843 16.1865 3.81347C16.4116 4.03852 16.538 4.34374 16.538 4.662Z" fill="#0E83F5"/>
</svg>
