<svg width="20" height="20" viewBox="0 0 20 20" fill="none" xmlns="http://www.w3.org/2000/svg">
<g clip-path="url(#clip0_334_1186)">
<path d="M20.625 3.32125C19.8302 3.67806 18.9861 3.91279 18.1213 4.0175C19.0348 3.4612 19.7156 2.59251 20.0375 1.5725C19.195 2.07875 18.2625 2.4475 17.27 2.645C16.8646 2.2053 16.3726 1.85435 15.8248 1.61426C15.2771 1.37416 14.6855 1.25014 14.0875 1.25C11.68 1.25 9.7275 3.2275 9.7275 5.6675C9.7275 6.01375 9.76625 6.35125 9.84 6.675C6.2175 6.49 3.005 4.73125 0.85375 2.05875C0.465759 2.73464 0.262291 3.50066 0.26375 4.28C0.26375 5.8125 1.03375 7.165 2.20375 7.95625C1.51042 7.93456 0.832696 7.74497 0.22875 7.40375V7.46C0.22875 9.6 1.73125 11.3862 3.725 11.7912C3.08357 11.9691 2.40952 11.9953 1.75625 11.8675C2.31125 13.6225 3.92125 14.9 5.83 14.935C4.92941 15.6533 3.89481 16.185 2.78655 16.4992C1.67829 16.8134 0.518552 16.9038 -0.625 16.765C1.36258 18.0613 3.68454 18.7511 6.0575 18.75C14.0775 18.75 18.4625 12.0175 18.4625 6.18C18.4625 5.98875 18.4575 5.7975 18.45 5.60875C19.3047 4.98107 20.0412 4.20653 20.625 3.32125Z" fill="#0E83F5"/>
</g>
<defs>
<clipPath id="clip0_334_1186">
<rect width="20" height="20" fill="white"/>
</clipPath>
</defs>
</svg>
